<svg width="127" height="50" viewBox="0 0 127 50" fill="none" xmlns="http://www.w3.org/2000/svg">
<g clip-path="url(#clip0_1349_11020)">
<path fill-rule="evenodd" clip-rule="evenodd" d="M6.3494 15.0659C6.42271 16.7961 6.84793 18.5117 7.66905 20.1392C7.71304 20.2272 7.77169 20.3299 7.81567 20.4178C7.85966 20.5058 7.91831 20.6084 7.97696 20.6964L8.12359 20.9603C9.48723 23.2184 11.3934 24.89 13.5781 25.9017C13.4462 26.0777 13.3142 26.2536 13.1822 26.4296H13.1676V26.4442C12.4491 27.5146 11.8626 28.453 11.1295 29.5234C10.6749 30.1979 10.235 30.887 9.76582 31.5469C9.58987 31.7815 9.42858 32.0014 9.25262 32.236C9.17931 32.324 9.09133 32.5293 9.00336 32.6026C8.95937 32.6319 8.88605 32.6612 8.8274 32.6759C8.69544 32.7199 8.4755 32.7639 8.34353 32.8079C8.13826 32.8518 8.00629 32.9105 7.83034 33.0131C7.47843 33.2184 7.30248 33.673 7.0972 34.0102C6.83327 34.4794 6.84793 34.6407 6.52535 35.2125C6.40805 35.4178 6.26142 35.6378 6.14412 35.843C5.9535 36.1803 5.70424 36.6935 5.90952 37.0307C5.98283 37.2213 5.85086 37.5439 5.9535 37.7345C5.99749 37.8225 6.04148 37.8812 6.11479 37.9105C6.20277 38.0278 6.29075 38.1304 6.40805 38.1598C6.48136 38.1891 6.584 38.2771 6.67198 38.3211C6.80394 38.365 6.87726 38.2624 6.99456 38.3504C7.17051 38.3944 7.46377 38.3357 7.46377 38.3357C7.46377 38.3357 7.74236 38.5263 8.05028 38.6143C8.43151 38.7756 9.41391 39.1422 10.0151 39.2888C11.3054 39.626 12.2438 39.8167 13.3582 39.8606C14.238 39.8753 15.1471 39.9046 16.0268 39.8167C16.76 39.7287 17.5371 39.6554 18.2556 39.4647C19.194 39.2301 20.1324 38.9662 21.0855 38.7023C22.0679 38.4237 22.6837 38.4823 23.7981 38.2331C24.194 38.1451 24.5312 38.1744 24.9418 38.1304C25.367 38.1744 25.7482 38.1451 26.1588 38.2331C27.2585 38.4823 27.889 38.4237 28.8714 38.7023C29.8098 38.9662 30.7482 39.2301 31.7013 39.4647C32.4051 39.6554 33.1822 39.7287 33.9154 39.8167C34.7951 39.9046 35.7042 39.8753 36.584 39.8606C37.6984 39.8167 38.6368 39.626 39.9271 39.2888C40.5429 39.1422 41.5107 38.7756 41.8919 38.6143C42.1998 38.5263 42.4784 38.3357 42.4784 38.3357C42.4784 38.3357 42.7717 38.3944 42.9623 38.3504C43.0796 38.2624 43.1529 38.365 43.2702 38.3211C43.3289 38.2917 43.4022 38.2477 43.4608 38.2038C42.9183 41.195 41.3054 43.9662 38.7688 45.887L38.5342 46.063C38.1529 46.3123 37.757 46.5469 37.3465 46.7815C25.7189 53.409 10.1471 49.4941 3.28488 37.4706C-3.54796 25.4911 0.630924 10.2565 12.6104 3.43835C8.40219 5.82838 6.12946 10.4618 6.3494 15.0659ZM17.3465 26.9721C18.1383 27.0601 18.9447 27.0747 19.7512 27.0014C19.8245 27.4706 19.9124 27.9398 19.9271 28.3211C19.9418 28.673 19.9124 29.7433 19.7951 30.0806C19.7218 30.2712 19.6632 30.5205 19.6339 30.7257C19.5605 31.107 19.238 31.1803 19.1793 31.2243C16.8919 31.8694 12.4198 33.7023 11.408 34.3328C11.3494 34.3768 11.3494 34.2595 11.4667 34.1128C12.1412 33.365 13.6221 31.6202 14.2086 31.0043C14.7512 30.4325 14.9271 30.3005 15.5723 29.5967C15.8069 29.3328 16.5254 28.3797 16.76 28.1011C16.9359 27.8812 17.0239 27.7492 17.0972 27.5879C17.1705 27.4413 17.2292 27.28 17.2878 27.1187L17.3465 26.9721ZM30.8069 23.7169C31.1001 23.7169 31.3934 23.7169 31.6866 23.7169L31.9799 24.7287C32.1412 25.2859 32.2585 25.9017 32.4344 26.4589C32.5078 26.6788 32.5811 26.8988 32.6544 27.1187C32.713 27.28 32.7717 27.4413 32.845 27.5879C32.9183 27.7492 33.021 27.8812 33.1822 28.1011C33.4168 28.3797 34.1353 29.3328 34.3699 29.5967C35.0298 30.3005 35.2057 30.4325 35.7336 31.0043C36.3201 31.6202 37.801 33.365 38.4755 34.1128C38.5928 34.2595 38.5928 34.3768 38.5342 34.3328C37.5371 33.7023 33.0503 31.8694 30.7629 31.2243C30.7042 31.1803 30.3963 31.107 30.323 30.7257C30.279 30.5205 30.235 30.2712 30.1617 30.0806C30.0298 29.7433 30.0151 28.673 30.0298 28.3211C30.0444 27.6172 30.279 26.6348 30.367 25.9457L30.499 25.2859L30.8069 23.7169ZM35.323 24.3768C37.9916 25.2859 40.3377 27.0747 41.8626 29.5674V29.5821C41.9212 29.67 41.9652 29.758 42.0239 29.846L42.1705 30.1099C43.1089 31.8548 43.5928 33.7316 43.6515 35.5938C43.5781 35.4765 43.4902 35.3445 43.4315 35.2125C43.0943 34.6407 43.1089 34.4794 42.845 34.0102C42.6544 33.673 42.4638 33.2184 42.1119 33.0131C41.9359 32.9105 41.8039 32.8518 41.5987 32.8079C41.4667 32.7639 41.2468 32.7199 41.1148 32.6759C41.0561 32.6612 40.9975 32.6319 40.9388 32.6026C40.8655 32.5293 40.7629 32.324 40.7042 32.236C40.5283 32.0014 40.3523 31.7815 40.1764 31.5469C39.7072 30.887 39.282 30.1979 38.8127 29.5234C38.0796 28.453 37.4931 27.5146 36.7746 26.4442V26.4296H36.76C36.5547 26.1656 36.3641 25.887 36.1734 25.6231C35.8802 25.2125 35.6016 24.802 35.323 24.3768Z" fill="#0A395B"/>
<path fill-rule="evenodd" clip-rule="evenodd" d="M46.6723 12.7493C53.2852 24.3182 49.6049 38.9369 38.5345 46.063C41.2324 44.1129 42.9773 41.2683 43.5198 38.1745L43.5491 38.1598C43.6518 38.1305 43.7398 38.0279 43.8277 37.9105C43.901 37.8812 43.945 37.8226 43.989 37.7346C44.0917 37.544 43.9744 37.2214 44.033 37.0308C44.2383 36.6935 43.989 36.1803 43.7984 35.8431C43.7691 35.7991 43.7398 35.7405 43.7104 35.6818C43.6371 33.7317 43.0946 31.7375 42.0242 29.846C40.514 27.2067 38.0799 25.3152 35.3233 24.3768C35.206 24.1862 35.0741 23.9956 34.9568 23.7903C34.7368 23.4091 34.6342 22.9105 34.5755 22.4853C34.4876 21.7522 34.4289 20.7405 34.3556 20.0073C34.253 18.8343 34.2236 17.1774 33.4905 16.239C32.904 15.5059 31.4084 14.934 30.5579 14.5821C29.8981 14.3035 29.2236 14.0542 28.5638 13.7757C28.3732 13.7023 27.64 13.3064 27.4934 13.1598C27.0682 12.6759 27.0242 11.5176 26.9802 10.9164C26.9802 10.9018 26.9802 10.8871 26.9949 10.8724C27.0096 10.7844 27.1415 10.5498 27.2002 10.4619C27.3615 10.2126 27.4934 9.96333 27.6107 9.6994C27.7134 9.47946 27.9333 9.37682 28.1093 9.24486C28.2999 9.09823 28.4172 8.89295 28.4758 8.65835C28.5931 8.27712 28.5931 7.77858 28.5345 7.38269V7.06011L28.5052 6.98679C28.4318 6.81084 28.3439 6.81084 28.1972 6.7082C28.0506 4.65542 27.2588 3.05718 24.9714 3.02785C24.9714 3.02785 24.9568 3.02785 24.9421 3.02785H24.9274C22.64 3.05718 21.8922 4.65542 21.7456 6.7082C21.599 6.81084 21.511 6.81084 21.4377 6.98679L21.4084 7.06011V7.38269C21.3497 7.77858 21.3644 8.27712 21.467 8.65835C21.5257 8.89295 21.6576 9.09823 21.8483 9.24486C22.0096 9.37682 22.2295 9.47946 22.3468 9.6994C22.4494 9.96333 22.5814 10.2126 22.7427 10.4619C22.8013 10.5498 22.9333 10.7844 22.948 10.8724C22.9626 10.8871 22.9626 10.9018 22.9626 10.9164C22.9333 11.5176 22.8747 12.6759 22.4494 13.1598C22.3175 13.3064 21.5697 13.7023 21.3791 13.7757C20.7192 14.0542 20.0447 14.3035 19.3849 14.5821C18.5345 14.934 17.0389 15.5059 16.4524 16.239C15.7192 17.1774 15.6899 18.8343 15.5873 20.0073C15.5286 20.7405 15.4553 21.7522 15.3673 22.4853C15.3087 22.9105 15.2207 23.4091 14.9861 23.7903C14.6195 24.4208 14.209 25.0366 13.7837 25.6232L13.5785 25.9018C11.3204 24.846 9.34093 23.1012 7.97729 20.6965C4.56087 14.7287 6.62832 6.84017 12.6107 3.43841C24.7368 -3.46775 39.5902 0.329903 46.6723 12.7493ZM31.687 23.717C31.3937 23.717 31.1005 23.717 30.8072 23.717L31.1738 21.9281C31.2471 22.1921 31.4817 23.0132 31.687 23.717ZM19.7515 27.0015C18.945 27.0748 18.1386 27.0601 17.3468 26.9721C17.4054 26.7962 17.4641 26.6349 17.5081 26.4589C17.684 25.9018 17.8013 25.2859 17.9626 24.7287C18.0799 24.3035 18.6518 22.3534 18.7691 21.9281L19.4436 25.2859L19.5755 25.9457C19.6195 26.2537 19.6782 26.6349 19.7515 27.0015Z" fill="#46A2DA"/>
<path d="M59.2825 21.7669V15.2273H62.0831L66.8045 21.7669H70.6608L65.6608 14.8607C67.7723 14.2156 69.0186 12.5294 69.0186 10.3739C69.0186 8.96631 68.5054 7.80795 67.5083 6.92818C66.5259 6.03375 65.1623 5.59387 63.4468 5.59387H55.9688V21.7669H59.2825ZM59.2825 8.4971H63.2561C64.7664 8.4971 65.6608 9.2449 65.6608 10.4619C65.6608 11.7376 64.7664 12.4267 63.2561 12.4267H59.2825V8.4971Z" fill="#46A2DA"/>
<path d="M74.9116 21.7669L76.4952 18.0279H83.3427L84.9263 21.7669H88.4747L81.5392 5.50586H78.3427L71.4219 21.7669H74.9116ZM79.9263 9.65542L82.2723 15.2713H77.5362L79.9263 9.65542Z" fill="#46A2DA"/>
<path d="M93.9456 21.7669V10.6965L97.7286 15.9018H99.5761L103.3 10.6965V21.7669H106.585V5.59387H103.3L98.6084 12.2948L93.9163 5.59387H90.6172V21.7669H93.9456Z" fill="#46A2DA"/>
<path d="M112.244 21.7669L113.842 18.0279H120.675L122.273 21.7669H125.807L118.871 5.50586H115.689L108.754 21.7669H112.244ZM117.258 9.65542L119.619 15.2713H114.883L117.258 9.65542Z" fill="#46A2DA"/>
<path d="M63.8863 43.9955V36.6642L70.118 27.8225H66.3056L62.2734 33.5703L58.2558 27.8225H54.3262L60.5872 36.7375V43.9955H63.8863Z" fill="#46A2DA"/>
<path d="M75.8211 39.6994C74.8827 38.7023 74.4135 37.4267 74.4135 35.9018C74.4135 34.3768 74.8827 33.1158 75.8211 32.1188C76.7742 31.1217 77.9765 30.6085 79.3988 30.6085C80.8358 30.6085 82.0088 31.1217 82.9619 32.1188C83.9149 33.1158 84.3988 34.3768 84.3988 35.9018C84.3988 37.4267 83.9149 38.7023 82.9619 39.6994C82.0088 40.6818 80.8358 41.195 79.3988 41.195C77.9765 41.195 76.7742 40.6818 75.8211 39.6994ZM71.0117 35.9018C71.0117 38.2331 71.8035 40.2273 73.4017 41.8695C74.9853 43.5117 77.0088 44.3182 79.3988 44.3182C81.8035 44.3182 83.7976 43.5117 85.3959 41.8695C86.9795 40.2273 87.7859 38.2331 87.7859 35.9018C87.7859 33.5557 86.9795 31.5616 85.3959 29.9487C83.7976 28.3065 81.8035 27.5 79.3988 27.5C77.0088 27.5 74.9853 28.3065 73.4017 29.9487C71.8035 31.5616 71.0117 33.5557 71.0117 35.9018Z" fill="#46A2DA"/>
<path d="M99.6774 44.3182C101.041 44.3182 102.317 44.0689 103.49 43.5704C104.677 43.0865 105.601 42.4707 106.261 41.7522V34.6114H102.932V40.1833C102.185 40.9018 101.085 41.239 99.6774 41.239C98.2111 41.239 96.9501 40.7551 95.9677 39.8167C94.9706 38.8636 94.4574 37.5733 94.4574 35.9751C94.4574 34.3622 94.9706 33.0572 96.0117 32.0894C97.0527 31.107 98.387 30.6085 100.029 30.6085C101.627 30.6085 103.152 31.0777 104.648 32.0015V28.717C103.284 27.9106 101.671 27.5 99.7946 27.5C97.2727 27.5 95.1759 28.2771 93.5337 29.846C91.8914 31.4296 91.0703 33.4384 91.0703 35.9018C91.0703 38.3504 91.8914 40.3592 93.5337 41.9575C95.1759 43.5264 97.2287 44.3182 99.6774 44.3182Z" fill="#46A2DA"/>
<path d="M112.244 43.9956L113.842 40.242H120.675L122.273 43.9956H125.807L118.871 27.72H115.689L108.754 43.9956H112.244ZM117.258 31.8842L119.619 37.5H114.883L117.258 31.8842Z" fill="#46A2DA"/>
</g>
<defs>
<clipPath id="clip0_1349_11020">
<rect width="125.806" height="50" fill="white"/>
</clipPath>
</defs>
</svg>
